<svg width="16" height="12" viewBox="0 0 16 12" fill="none" xmlns="http://www.w3.org/2000/svg">
<path fill-rule="evenodd" clip-rule="evenodd" d="M16 6C16 6.45704 15.6229 6.82759 15.1579 6.82759H2.87133L6.68734 10.5879C7.01576 10.9117 7.01513 11.4356 6.68586 11.7583C6.52144 11.9195 6.30628 12 6.09113 12C5.87534 12 5.65933 11.9189 5.49491 11.7569L0.245843 6.58448C-0.0819476 6.26131 -0.0819476 5.73869 0.245843 5.41552L5.49491 0.243104C5.82333 -0.0804821 6.35639 -0.0811028 6.68586 0.241656C7.01513 0.564414 7.01576 1.08828 6.68734 1.41207L2.87133 5.17241H15.1579C15.6229 5.17241 16 5.54297 16 6Z" fill="#1044FF"/>
</svg>
