<svg width="40" height="40" viewBox="0 0 40 40" fill="none" xmlns="http://www.w3.org/2000/svg">
<path d="M36.6168 30.5502C36.6168 31.1502 36.4835 31.7668 36.2002 32.3668C35.9168 32.9668 35.5502 33.5335 35.0668 34.0668C34.2502 34.9668 33.3502 35.6168 32.3335 36.0335C31.3335 36.4502 30.2502 36.6668 29.0835 36.6668C27.3835 36.6668 25.5668 36.2668 23.6502 35.4502C21.7335 34.6335 19.8168 33.5335 17.9168 32.1502C16.0002 30.7502 14.1835 29.2002 12.4502 27.4835C10.7335 25.7502 9.1835 23.9335 7.80016 22.0335C6.4335 20.1335 5.3335 18.2335 4.5335 16.3502C3.7335 14.4502 3.3335 12.6335 3.3335 10.9002C3.3335 9.76683 3.5335 8.6835 3.9335 7.6835C4.3335 6.66683 4.96683 5.7335 5.85016 4.90016C6.91683 3.85016 8.0835 3.3335 9.31683 3.3335C9.7835 3.3335 10.2502 3.4335 10.6668 3.6335C11.1002 3.8335 11.4835 4.1335 11.7835 4.56683L15.6502 10.0168C15.9502 10.4335 16.1668 10.8168 16.3168 11.1835C16.4668 11.5335 16.5502 11.8835 16.5502 12.2002C16.5502 12.6002 16.4335 13.0002 16.2002 13.3835C15.9835 13.7668 15.6668 14.1668 15.2668 14.5668L14.0002 15.8835C13.8168 16.0668 13.7335 16.2835 13.7335 16.5502C13.7335 16.6835 13.7502 16.8002 13.7835 16.9335C13.8335 17.0668 13.8835 17.1668 13.9168 17.2668C14.2168 17.8168 14.7335 18.5335 15.4668 19.4002C16.2168 20.2668 17.0168 21.1502 17.8835 22.0335C18.7835 22.9168 19.6502 23.7335 20.5335 24.4835C21.4002 25.2168 22.1168 25.7168 22.6835 26.0168C22.7668 26.0502 22.8668 26.1002 22.9835 26.1502C23.1168 26.2002 23.2502 26.2168 23.4002 26.2168C23.6835 26.2168 23.9002 26.1168 24.0835 25.9335L25.3502 24.6835C25.7668 24.2668 26.1668 23.9502 26.5502 23.7502C26.9335 23.5168 27.3168 23.4002 27.7335 23.4002C28.0502 23.4002 28.3835 23.4668 28.7502 23.6168C29.1168 23.7668 29.5002 23.9835 29.9168 24.2668L35.4335 28.1835C35.8668 28.4835 36.1668 28.8335 36.3502 29.2502C36.5168 29.6668 36.6168 30.0835 36.6168 30.5502Z" stroke="#1044FF" stroke-width="2" stroke-miterlimit="10"/>
<path d="M30.8333 15.0003C30.8333 14.0003 30.05 12.467 28.8833 11.217C27.8167 10.067 26.4 9.16699 25 9.16699" stroke="#1044FF" stroke-width="2" stroke-linecap="round" stroke-linejoin="round"/>
<path d="M36.6667 15.0002C36.6667 8.55016 31.45 3.3335 25 3.3335" stroke="#1044FF" stroke-width="2" stroke-linecap="round" stroke-linejoin="round"/>
</svg>
