<svg width="27" height="27" viewBox="0 0 27 27" fill="none" xmlns="http://www.w3.org/2000/svg">
<path fill-rule="evenodd" clip-rule="evenodd" d="M13.5 0C9.83362 0 9.37463 0.01575 7.93463 0.081C3.03188 0.306 0.307125 3.02625 0.082125 7.9335C0.01575 9.37463 0 9.83362 0 13.5C0 17.1664 0.01575 17.6265 0.081 19.0665C0.306 23.9692 3.02625 26.694 7.9335 26.919C9.37463 26.9843 9.83362 27 13.5 27C17.1664 27 17.6265 26.9843 19.0665 26.919C23.9648 26.694 26.6963 23.9737 26.9179 19.0665C26.9843 17.6265 27 17.1664 27 13.5C27 9.83362 26.9843 9.37463 26.919 7.93463C26.6985 3.03638 23.9749 0.307125 19.0676 0.082125C17.6265 0.01575 17.1664 0 13.5 0ZM13.5 2.43337C17.1045 2.43337 17.532 2.44687 18.9562 2.51212C22.6147 2.67862 24.3236 4.4145 24.4901 8.046C24.5554 9.46912 24.5677 9.89662 24.5677 13.5011C24.5677 17.1068 24.5542 17.5331 24.4901 18.9562C24.3225 22.5844 22.6181 24.3236 18.9562 24.4901C17.532 24.5554 17.1068 24.5689 13.5 24.5689C9.8955 24.5689 9.468 24.5554 8.04488 24.4901C4.37738 24.3225 2.6775 22.5787 2.511 18.9551C2.44575 17.532 2.43225 17.1056 2.43225 13.5C2.43225 9.8955 2.44688 9.46912 2.511 8.04487C2.67863 4.4145 4.383 2.6775 8.04488 2.511C9.46912 2.44687 9.8955 2.43337 13.5 2.43337ZM6.56787 13.4996C6.56787 9.67126 9.67175 6.56738 13.5001 6.56738C17.3285 6.56738 20.4324 9.67126 20.4324 13.4996C20.4324 17.3291 17.3285 20.433 13.5001 20.433C9.67175 20.433 6.56787 17.328 6.56787 13.4996ZM13.5 18C11.0149 18 9 15.9862 9 13.5C9 11.0149 11.0149 9 13.5 9C15.9851 9 18 11.0149 18 13.5C18 15.9862 15.9851 18 13.5 18ZM19.0854 6.2948C19.0854 5.40043 19.8111 4.6748 20.7066 4.6748C21.6009 4.6748 22.3254 5.40043 22.3254 6.2948C22.3254 7.18918 21.6009 7.9148 20.7066 7.9148C19.8111 7.9148 19.0854 7.18918 19.0854 6.2948Z" fill="#FCD8D4"/>
</svg>
